<svg width="357" height="138" viewBox="0 0 357 138" fill="none" xmlns="http://www.w3.org/2000/svg">
<path d="M277 36V46.382H232.112V63.0833H268.211V73.4653H232.112V90.6181H277V101H221.005V46.382H221V36H277Z" fill="black"/>
<path d="M296.607 100.855C295.61 100.855 294.762 100.509 294.052 99.8186C293.342 99.1279 292.991 98.2917 293 97.3011C292.991 96.3377 293.342 95.5106 294.052 94.8199C294.762 94.1292 295.61 93.7838 296.607 93.7838C297.566 93.7838 298.405 94.1292 299.115 94.8199C299.835 95.5106 300.194 96.3377 300.204 97.3011C300.194 97.9554 300.028 98.5552 299.696 99.0914C299.355 99.6368 298.922 100.064 298.377 100.373C297.842 100.691 297.252 100.855 296.607 100.855Z" fill="black"/>
<path d="M319.84 67.4453H325.872V90.6846C325.863 92.8204 325.401 94.6472 324.498 96.1832C323.585 97.7191 322.321 98.8914 320.698 99.7185C319.084 100.536 317.193 100.955 315.044 100.955C313.079 100.955 311.318 100.6 309.75 99.9094C308.182 99.2187 306.937 98.1826 306.024 96.8193C305.101 95.456 304.649 93.7565 304.649 91.7207H310.691C310.7 92.6114 310.903 93.3838 311.29 94.0291C311.677 94.6744 312.212 95.1651 312.895 95.5105C313.586 95.8559 314.38 96.0286 315.274 96.0286C316.243 96.0286 317.073 95.8286 317.746 95.4196C318.419 95.0197 318.936 94.4199 319.296 93.6201C319.646 92.8295 319.831 91.8479 319.84 90.6846V67.4453Z" fill="black"/>
<path d="M350.691 76.5338C350.544 75.1251 349.898 74.0254 348.773 73.2438C347.638 72.4531 346.172 72.0623 344.373 72.0623C343.11 72.0623 342.022 72.2532 341.118 72.6258C340.214 73.0075 339.513 73.5164 339.033 74.1617C338.554 74.807 338.314 75.5432 338.295 76.3703C338.295 77.061 338.461 77.6608 338.784 78.1607C339.107 78.6696 339.54 79.0968 340.103 79.4422C340.656 79.7966 341.274 80.0874 341.948 80.3237C342.63 80.56 343.313 80.76 343.995 80.9236L347.14 81.6961C348.404 81.9869 349.631 82.3778 350.802 82.8776C351.973 83.3684 353.034 83.9955 353.965 84.7498C354.897 85.5042 355.635 86.413 356.179 87.4764C356.723 88.5397 357 89.7848 357 91.2208C357 93.1566 356.502 94.8562 355.496 96.3285C354.491 97.7917 353.043 98.9369 351.143 99.764C349.252 100.582 346.965 101 344.272 101C341.671 101 339.402 100.6 337.493 99.8004C335.575 99.0097 334.08 97.8463 333.001 96.3194C331.922 94.7926 331.341 92.9294 331.258 90.7391H337.235C337.318 91.8842 337.687 92.8386 338.314 93.6111C338.95 94.3745 339.78 94.938 340.795 95.3197C341.819 95.6923 342.962 95.8832 344.226 95.8832C345.545 95.8832 346.707 95.6832 347.712 95.2924C348.708 94.9016 349.492 94.3564 350.055 93.6475C350.627 92.9476 350.913 92.1206 350.922 91.1754C350.913 90.312 350.654 89.5939 350.156 89.0304C349.649 88.467 348.948 87.9944 348.053 87.6127C347.15 87.231 346.098 86.8856 344.899 86.5857L341.081 85.6223C338.323 84.9225 336.137 83.8592 334.541 82.4323C332.937 81.0054 332.143 79.115 332.143 76.7429C332.143 74.798 332.678 73.0894 333.758 71.6261C334.827 70.1629 336.294 69.0268 338.148 68.2179C340.011 67.4 342.114 67 344.456 67C346.836 67 348.92 67.4 350.719 68.2179C352.517 69.0268 353.929 70.1538 354.952 71.5897C355.976 73.0257 356.511 74.6707 356.539 76.5338H350.691Z" fill="black"/>
<path d="M91.1112 101V36.2727H114.183C119.198 36.2727 123.359 37.1366 126.667 38.8643C129.996 40.5921 132.482 42.9835 134.126 46.0387C135.769 49.0728 136.591 52.581 136.591 56.5632C136.591 60.5244 135.759 64.0115 134.094 67.0245C132.451 70.0165 129.964 72.3447 126.635 74.0092C123.327 75.6738 119.166 76.506 114.151 76.506H96.6737V68.0991H113.266C116.427 68.0991 118.997 67.6461 120.978 66.7401C122.98 65.834 124.444 64.5172 125.371 62.7894C126.298 61.0617 126.762 58.9863 126.762 56.5632C126.762 54.1191 126.288 52.0015 125.339 50.2106C124.412 48.4196 122.948 47.0501 120.946 46.1019C118.966 45.1327 116.364 44.6481 113.14 44.6481H100.877V101H91.1112ZM123.064 71.7969L139.056 101H127.931L112.255 71.7969H123.064Z" fill="black"/>
<path d="M194.176 55.46C192.52 52.2707 190.22 49.8787 187.276 48.284C184.332 46.628 180.928 45.8 177.064 45.8C172.832 45.8 169.06 46.7507 165.748 48.652C162.436 50.5533 159.829 53.252 157.928 56.748C156.088 60.244 155.168 64.292 155.168 68.892C155.168 73.492 156.088 77.5707 157.928 81.128C159.829 84.624 162.436 87.3227 165.748 89.224C169.06 91.1253 172.832 92.076 177.064 92.076C182.768 92.076 187.399 90.4813 190.956 87.292C194.513 84.1027 196.691 79.7787 197.488 74.32H173.476V65.948H208.712V74.136C208.037 79.104 206.259 83.6733 203.376 87.844C200.555 92.0147 196.844 95.3573 192.244 97.872C187.705 100.325 182.645 101.552 177.064 101.552C171.053 101.552 165.564 100.172 160.596 97.412C155.628 94.5907 151.672 90.696 148.728 85.728C145.845 80.76 144.404 75.148 144.404 68.892C144.404 62.636 145.845 57.024 148.728 52.056C151.672 47.088 155.628 43.224 160.596 40.464C165.625 37.6427 171.115 36.232 177.064 36.232C183.872 36.232 189.913 37.9187 195.188 41.292C200.524 44.604 204.388 49.3267 206.78 55.46H194.176Z" fill="black"/>
<path d="M53 63.7823C53 79.126 53 51.7258 26.5 51.7258C0 51.7258 0 79.126 0 63.7823C0 48.4385 11.8645 36 26.5 36C41.1355 36 53 48.4385 53 63.7823Z" fill="black"/>
<ellipse cx="26.5" cy="82.6532" rx="26.5" ry="18.3468" fill="black"/>
</svg>
