<svg width="321" height="367" viewBox="0 0 321 367" fill="none" xmlns="http://www.w3.org/2000/svg">
<rect width="321" height="367" rx="8" fill="#F8F8F8"/>
<circle cx="160.5" cy="104" r="70" fill="#F8F8F8"/>
<path d="M197.5 97.5C197.5 117.658 197.5 81.6604 161 81.6604C124.5 81.6604 124.5 117.658 124.5 97.5C124.5 77.3416 140.842 61 161 61C181.158 61 197.5 77.3416 197.5 97.5Z" fill="black"/>
<ellipse cx="161" cy="122.292" rx="36.5" ry="24.1038" fill="black"/>
<path d="M257 212V222.382H212.112V239.083H248.211V249.465H212.112V266.618H257V277H201.005V222.382H201V212H257Z" fill="black"/>
<path d="M128.607 332.855C127.61 332.855 126.762 332.509 126.052 331.819C125.342 331.128 124.991 330.292 125 329.301C124.991 328.338 125.342 327.511 126.052 326.82C126.762 326.129 127.61 325.784 128.607 325.784C129.566 325.784 130.405 326.129 131.115 326.82C131.835 327.511 132.194 328.338 132.204 329.301C132.194 329.955 132.028 330.555 131.696 331.091C131.355 331.637 130.922 332.064 130.377 332.373C129.842 332.691 129.252 332.855 128.607 332.855Z" fill="black"/>
<path d="M151.84 299.445H157.872V322.685C157.863 324.82 157.401 326.647 156.498 328.183C155.585 329.719 154.321 330.891 152.698 331.719C151.084 332.536 149.193 332.955 147.044 332.955C145.079 332.955 143.318 332.6 141.75 331.909C140.182 331.219 138.937 330.183 138.024 328.819C137.101 327.456 136.649 325.757 136.649 323.721H142.691C142.7 324.611 142.903 325.384 143.29 326.029C143.677 326.674 144.212 327.165 144.895 327.511C145.586 327.856 146.38 328.029 147.274 328.029C148.243 328.029 149.073 327.829 149.746 327.42C150.419 327.02 150.936 326.42 151.296 325.62C151.646 324.83 151.831 323.848 151.84 322.685V299.445Z" fill="black"/>
<path d="M182.691 308.534C182.544 307.125 181.898 306.025 180.773 305.244C179.638 304.453 178.172 304.062 176.373 304.062C175.11 304.062 174.022 304.253 173.118 304.626C172.214 305.008 171.513 305.516 171.033 306.162C170.554 306.807 170.314 307.543 170.295 308.37C170.295 309.061 170.461 309.661 170.784 310.161C171.107 310.67 171.54 311.097 172.103 311.442C172.656 311.797 173.274 312.087 173.948 312.324C174.63 312.56 175.313 312.76 175.995 312.924L179.14 313.696C180.404 313.987 181.631 314.378 182.802 314.878C183.973 315.368 185.034 315.996 185.965 316.75C186.897 317.504 187.635 318.413 188.179 319.476C188.723 320.54 189 321.785 189 323.221C189 325.157 188.502 326.856 187.496 328.328C186.491 329.792 185.043 330.937 183.143 331.764C181.252 332.582 178.965 333 176.272 333C173.671 333 171.402 332.6 169.493 331.8C167.575 331.01 166.08 329.846 165.001 328.319C163.922 326.793 163.341 324.929 163.258 322.739H169.235C169.318 323.884 169.687 324.839 170.314 325.611C170.95 326.374 171.78 326.938 172.795 327.32C173.819 327.692 174.962 327.883 176.226 327.883C177.545 327.883 178.707 327.683 179.712 327.292C180.708 326.902 181.492 326.356 182.055 325.647C182.627 324.948 182.913 324.121 182.922 323.175C182.913 322.312 182.654 321.594 182.156 321.03C181.649 320.467 180.948 319.994 180.053 319.613C179.15 319.231 178.098 318.886 176.899 318.586L173.081 317.622C170.323 316.922 168.137 315.859 166.541 314.432C164.937 313.005 164.143 311.115 164.143 308.743C164.143 306.798 164.678 305.089 165.758 303.626C166.827 302.163 168.294 301.027 170.148 300.218C172.011 299.4 174.114 299 176.456 299C178.836 299 180.92 299.4 182.719 300.218C184.517 301.027 185.929 302.154 186.952 303.59C187.976 305.026 188.511 306.671 188.539 308.534H182.691Z" fill="black"/>
<path d="M71.1112 277V212.273H94.1829C99.1976 212.273 103.359 213.137 106.667 214.864C109.996 216.592 112.482 218.984 114.126 222.039C115.769 225.073 116.591 228.581 116.591 232.563C116.591 236.524 115.759 240.011 114.094 243.025C112.451 246.016 109.964 248.345 106.635 250.009C103.327 251.674 99.166 252.506 94.1513 252.506H76.6737V244.099H93.2663C96.4268 244.099 98.9974 243.646 100.978 242.74C102.98 241.834 104.444 240.517 105.371 238.789C106.298 237.062 106.762 234.986 106.762 232.563C106.762 230.119 106.288 228.002 105.339 226.211C104.412 224.42 102.948 223.05 100.946 222.102C98.9658 221.133 96.3636 220.648 93.1399 220.648H80.8771V277H71.1112ZM103.064 247.797L119.056 277H107.931L92.255 247.797H103.064Z" fill="black"/>
<path d="M174.176 231.46C172.52 228.271 170.22 225.879 167.276 224.284C164.332 222.628 160.928 221.8 157.064 221.8C152.832 221.8 149.06 222.751 145.748 224.652C142.436 226.553 139.829 229.252 137.928 232.748C136.088 236.244 135.168 240.292 135.168 244.892C135.168 249.492 136.088 253.571 137.928 257.128C139.829 260.624 142.436 263.323 145.748 265.224C149.06 267.125 152.832 268.076 157.064 268.076C162.768 268.076 167.399 266.481 170.956 263.292C174.513 260.103 176.691 255.779 177.488 250.32H153.476V241.948H188.712V250.136C188.037 255.104 186.259 259.673 183.376 263.844C180.555 268.015 176.844 271.357 172.244 273.872C167.705 276.325 162.645 277.552 157.064 277.552C151.053 277.552 145.564 276.172 140.596 273.412C135.628 270.591 131.672 266.696 128.728 261.728C125.845 256.76 124.404 251.148 124.404 244.892C124.404 238.636 125.845 233.024 128.728 228.056C131.672 223.088 135.628 219.224 140.596 216.464C145.625 213.643 151.115 212.232 157.064 212.232C163.872 212.232 169.913 213.919 175.188 217.292C180.524 220.604 184.388 225.327 186.78 231.46H174.176Z" fill="black"/>
</svg>
